<svg width="19" height="19" viewBox="0 0 19 19" fill="none" xmlns="http://www.w3.org/2000/svg">
<g clip-path="url(#clip0_694_12418)">
<path d="M9.49977 17.4167C13.872 17.4167 17.4164 13.8723 17.4164 9.50001C17.4164 5.12776 13.872 1.58334 9.49977 1.58334C5.12751 1.58334 1.5831 5.12776 1.5831 9.50001C1.5831 13.8723 5.12751 17.4167 9.49977 17.4167Z" stroke="#333333" stroke-width="1.35714" stroke-linecap="round" stroke-linejoin="round"/>
<path d="M7.19592 7.12499C7.38205 6.5959 7.74942 6.14974 8.23297 5.86556C8.71652 5.58137 9.28505 5.47749 9.83785 5.57231C10.3907 5.66713 10.8921 5.95453 11.2533 6.38362C11.6145 6.81271 11.8122 7.35578 11.8113 7.91666C11.8113 9.49999 9.43634 10.2917 9.43634 10.2917V11.5357" stroke="#333333" stroke-width="1.35714" stroke-linecap="round" stroke-linejoin="round"/>
<path d="M9.5 13.4583H9.50774" stroke="#333333" stroke-width="1.35714" stroke-linecap="round" stroke-linejoin="round"/>
</g>
<defs>
<clipPath id="clip0_694_12418">
<rect width="19" height="19" fill="white"/>
</clipPath>
</defs>
</svg>
