<svg width="18" height="18" viewBox="0 0 18 18" fill="none" xmlns="http://www.w3.org/2000/svg">
<path d="M13.5 6.00001C13.5 4.80654 13.0259 3.66194 12.182 2.81803C11.3381 1.97412 10.1935 1.50001 9 1.50001C7.80653 1.50001 6.66193 1.97412 5.81802 2.81803C4.97411 3.66194 4.5 4.80654 4.5 6.00001C4.5 11.25 2.25 12.75 2.25 12.75H15.75C15.75 12.75 13.5 11.25 13.5 6.00001Z" stroke="#191D23" stroke-width="1.45833" stroke-linecap="round" stroke-linejoin="round"/>
<path d="M10.2975 15.75C10.1656 15.9773 9.97636 16.166 9.74865 16.2971C9.52094 16.4283 9.26277 16.4973 8.99998 16.4973C8.7372 16.4973 8.47903 16.4283 8.25131 16.2971C8.0236 16.166 7.83434 15.9773 7.70248 15.75" stroke="#191D23" stroke-width="1.45833" stroke-linecap="round" stroke-linejoin="round"/>
</svg>
